{
	"asset":{
		"generator":"Khronos glTF Blender I/O v4.0.44",
		"version":"2.0"
	},
	"scene":0,
	"scenes":[
		{
			"name":"Scene",
			"nodes":[
				1,
				2,
				3,
				4,
				5
			]
		}
	],
	"nodes":[
		{
			"mesh":0,
			"name":"Charcoal Frosting",
			"translation":[
				0.00013607274740934372,
				0.01272439956665039,
				-0.00015753961633890867
			]
		},
		{
			"children":[
				0
			],
			"mesh":1,
			"name":"Charcoal Donut",
			"rotation":[
				0.013170908205211163,
				-0.999157726764679,
				0.010162984021008015,
				0.037511829286813736
			],
			"scale":[
				5,
				5,
				5
			],
			"translation":[
				0.6551739573478699,
				0.3441292941570282,
				-0.7567579746246338
			]
		},
		{
			"mesh":2,
			"name":"Charcoal Icing",
			"translation":[
				0.5183842778205872,
				0.426582396030426,
				-0.744918942451477
			]
		},
		{
			"mesh":3,
			"name":"Golden Long Sprinkle",
			"rotation":[
				0.04866739735007286,
				-0.3877631425857544,
				-0.13659979403018951,
				0.9102811217308044
			],
			"scale":[
				1,
				1,
				1.2518774271011353
			],
			"translation":[
				0.5868244767189026,
				0.4854316711425781,
				-0.921845018863678
			]
		},
		{
			"mesh":4,
			"name":"Golden Square Disk",
			"rotation":[
				0.025883108377456665,
				-0.295589804649353,
				-0.020783821120858192,
				0.9547380805015564
			],
			"translation":[
				0.5375882387161255,
				0.4931033253669739,
				-0.5720534324645996
			]
		},
		{
			"mesh":5,
			"name":"Golden Sphere Sprinkle",
			"translation":[
				0.8756242394447327,
				0.5026049017906189,
				-0.7616541981697083
			]
		}
	],
	"materials":[
		{
			"doubleSided":true,
			"name":"Charchoal Frosting",
			"pbrMetallicRoughness":{
				"baseColorFactor":[
					0.010664677247405052,
					0.010664677247405052,
					0.010664677247405052,
					1
				],
				"metallicFactor":0,
				"roughnessFactor":0.5956016778945923
			}
		},
		{
			"doubleSided":true,
			"name":"Charcoal Icing",
			"pbrMetallicRoughness":{
				"baseColorFactor":[
					0,
					0,
					0,
					1
				],
				"metallicFactor":0.852320671081543,
				"roughnessFactor":0.2932489514350891
			}
		},
		{
			"doubleSided":true,
			"name":"Dough",
			"pbrMetallicRoughness":{
				"baseColorTexture":{
					"index":0
				},
				"metallicFactor":0,
				"roughnessFactor":0.5
			}
		},
		{
			"doubleSided":true,
			"name":"Charcoal Icing",
			"pbrMetallicRoughness":{
				"baseColorFactor":[
					0,
					0,
					0,
					1
				],
				"metallicFactor":0.852320671081543,
				"roughnessFactor":0.2932489514350891
			}
		},
		{
			"doubleSided":true,
			"name":"Golden Sprinkle",
			"pbrMetallicRoughness":{
				"baseColorFactor":[
					1,
					0.7326180338859558,
					0.1808995008468628,
					1
				],
				"metallicFactor":0.9493669867515564,
				"roughnessFactor":0.22925807535648346
			}
		},
		{
			"doubleSided":true,
			"name":"Golden Sprinkle",
			"pbrMetallicRoughness":{
				"baseColorFactor":[
					1,
					0.7326180338859558,
					0.1808995008468628,
					1
				],
				"metallicFactor":0.9493669867515564,
				"roughnessFactor":0.22925807535648346
			}
		}
	],
	"meshes":[
		{
			"name":"Chocolate Frosting.006",
			"primitives":[
				{
					"attributes":{
						"POSITION":0,
						"NORMAL":1,
						"TEXCOORD_0":2
					},
					"indices":3,
					"material":0
				},
				{
					"attributes":{
						"POSITION":4,
						"NORMAL":5,
						"TEXCOORD_0":6
					},
					"indices":7,
					"material":1
				}
			]
		},
		{
			"name":"Mesh",
			"primitives":[
				{
					"attributes":{
						"POSITION":8,
						"NORMAL":9,
						"TEXCOORD_0":10
					},
					"indices":11,
					"material":2
				}
			]
		},
		{
			"name":"Charcoal Icing",
			"primitives":[
				{
					"attributes":{
						"POSITION":12,
						"NORMAL":13,
						"TEXCOORD_0":14
					},
					"indices":15,
					"material":3
				}
			]
		},
		{
			"name":"Large.005",
			"primitives":[
				{
					"attributes":{
						"POSITION":16,
						"NORMAL":17,
						"TEXCOORD_0":18
					},
					"indices":19,
					"material":4
				}
			]
		},
		{
			"name":"Cube",
			"primitives":[
				{
					"attributes":{
						"POSITION":20,
						"NORMAL":21,
						"TEXCOORD_0":22
					},
					"indices":23,
					"material":5
				}
			]
		},
		{
			"name":"Sphere Sprinkle.002",
			"primitives":[
				{
					"attributes":{
						"POSITION":24,
						"NORMAL":25,
						"TEXCOORD_0":26
					},
					"indices":27,
					"material":4
				}
			]
		}
	],
	"textures":[
		{
			"sampler":0,
			"source":0
		}
	],
	"images":[
		{
			"mimeType":"image/png",
			"name":"Donut Base.001",
			"uri":"Donut%20Base_001.png"
		}
	],
	"accessors":[
		{
			"bufferView":0,
			"componentType":5126,
			"count":27344,
			"max":[
				0.06391036510467529,
				0.013849478214979172,
				0.06421544402837753
			],
			"min":[
				-0.06641022861003876,
				-0.03699367493391037,
				-0.06289331614971161
			],
			"type":"VEC3"
		},
		{
			"bufferView":1,
			"componentType":5126,
			"count":27344,
			"type":"VEC3"
		},
		{
			"bufferView":2,
			"componentType":5126,
			"count":27344,
			"type":"VEC2"
		},
		{
			"bufferView":3,
			"componentType":5123,
			"count":163440,
			"type":"SCALAR"
		},
		{
			"bufferView":4,
			"componentType":5126,
			"count":44726,
			"max":[
				0.004020481836050749,
				0.01604650355875492,
				0.06347405910491943
			],
			"min":[
				-0.06373056769371033,
				-0.010136869736015797,
				-0.062199391424655914
			],
			"type":"VEC3"
		},
		{
			"bufferView":5,
			"componentType":5126,
			"count":44726,
			"type":"VEC3"
		},
		{
			"bufferView":6,
			"componentType":5126,
			"count":44726,
			"type":"VEC2"
		},
		{
			"bufferView":7,
			"componentType":5123,
			"count":157020,
			"type":"SCALAR"
		},
		{
			"bufferView":8,
			"componentType":5126,
			"count":1725,
			"max":[
				0.062057044357061386,
				0.024302547797560692,
				0.06199101358652115
			],
			"min":[
				-0.06303640455007553,
				-0.024454345926642418,
				-0.060985710471868515
			],
			"type":"VEC3"
		},
		{
			"bufferView":9,
			"componentType":5126,
			"count":1725,
			"type":"VEC3"
		},
		{
			"bufferView":10,
			"componentType":5126,
			"count":1725,
			"type":"VEC2"
		},
		{
			"bufferView":11,
			"componentType":5123,
			"count":9216,
			"type":"SCALAR"
		},
		{
			"bufferView":12,
			"componentType":5126,
			"count":4286,
			"max":[
				0.13960881531238556,
				0.06294508278369904,
				0.3101254105567932
			],
			"min":[
				-0.16959644854068756,
				-0.09323276579380035,
				-0.30448752641677856
			],
			"type":"VEC3"
		},
		{
			"bufferView":13,
			"componentType":5126,
			"count":4286,
			"type":"VEC3"
		},
		{
			"bufferView":14,
			"componentType":5126,
			"count":4286,
			"type":"VEC2"
		},
		{
			"bufferView":15,
			"componentType":5123,
			"count":23448,
			"type":"SCALAR"
		},
		{
			"bufferView":16,
			"componentType":5126,
			"count":242,
			"max":[
				0.018569303676486015,
				0.018569305539131165,
				0.0910266563296318
			],
			"min":[
				-0.018569303676486015,
				-0.018569307401776314,
				-0.09102664887905121
			],
			"type":"VEC3"
		},
		{
			"bufferView":17,
			"componentType":5126,
			"count":242,
			"type":"VEC3"
		},
		{
			"bufferView":18,
			"componentType":5126,
			"count":242,
			"type":"VEC2"
		},
		{
			"bufferView":19,
			"componentType":5123,
			"count":756,
			"type":"SCALAR"
		},
		{
			"bufferView":20,
			"componentType":5126,
			"count":191,
			"max":[
				0.052834950387477875,
				0.011231811717152596,
				0.052834950387477875
			],
			"min":[
				-0.052834950387477875,
				-0.011231811717152596,
				-0.052834950387477875
			],
			"type":"VEC3"
		},
		{
			"bufferView":21,
			"componentType":5126,
			"count":191,
			"type":"VEC3"
		},
		{
			"bufferView":22,
			"componentType":5126,
			"count":191,
			"type":"VEC2"
		},
		{
			"bufferView":23,
			"componentType":5123,
			"count":900,
			"type":"SCALAR"
		},
		{
			"bufferView":24,
			"componentType":5126,
			"count":115,
			"max":[
				0.035368598997592926,
				0.035368598997592926,
				0.035368598997592926
			],
			"min":[
				-0.035368598997592926,
				-0.035368598997592926,
				-0.035368598997592926
			],
			"type":"VEC3"
		},
		{
			"bufferView":25,
			"componentType":5126,
			"count":115,
			"type":"VEC3"
		},
		{
			"bufferView":26,
			"componentType":5126,
			"count":115,
			"type":"VEC2"
		},
		{
			"bufferView":27,
			"componentType":5123,
			"count":504,
			"type":"SCALAR"
		}
	],
	"bufferViews":[
		{
			"buffer":0,
			"byteLength":328128,
			"byteOffset":0,
			"target":34962
		},
		{
			"buffer":0,
			"byteLength":328128,
			"byteOffset":328128,
			"target":34962
		},
		{
			"buffer":0,
			"byteLength":218752,
			"byteOffset":656256,
			"target":34962
		},
		{
			"buffer":0,
			"byteLength":326880,
			"byteOffset":875008,
			"target":34963
		},
		{
			"buffer":0,
			"byteLength":536712,
			"byteOffset":1201888,
			"target":34962
		},
		{
			"buffer":0,
			"byteLength":536712,
			"byteOffset":1738600,
			"target":34962
		},
		{
			"buffer":0,
			"byteLength":357808,
			"byteOffset":2275312,
			"target":34962
		},
		{
			"buffer":0,
			"byteLength":314040,
			"byteOffset":2633120,
			"target":34963
		},
		{
			"buffer":0,
			"byteLength":20700,
			"byteOffset":2947160,
			"target":34962
		},
		{
			"buffer":0,
			"byteLength":20700,
			"byteOffset":2967860,
			"target":34962
		},
		{
			"buffer":0,
			"byteLength":13800,
			"byteOffset":2988560,
			"target":34962
		},
		{
			"buffer":0,
			"byteLength":18432,
			"byteOffset":3002360,
			"target":34963
		},
		{
			"buffer":0,
			"byteLength":51432,
			"byteOffset":3020792,
			"target":34962
		},
		{
			"buffer":0,
			"byteLength":51432,
			"byteOffset":3072224,
			"target":34962
		},
		{
			"buffer":0,
			"byteLength":34288,
			"byteOffset":3123656,
			"target":34962
		},
		{
			"buffer":0,
			"byteLength":46896,
			"byteOffset":3157944,
			"target":34963
		},
		{
			"buffer":0,
			"byteLength":2904,
			"byteOffset":3204840,
			"target":34962
		},
		{
			"buffer":0,
			"byteLength":2904,
			"byteOffset":3207744,
			"target":34962
		},
		{
			"buffer":0,
			"byteLength":1936,
			"byteOffset":3210648,
			"target":34962
		},
		{
			"buffer":0,
			"byteLength":1512,
			"byteOffset":3212584,
			"target":34963
		},
		{
			"buffer":0,
			"byteLength":2292,
			"byteOffset":3214096,
			"target":34962
		},
		{
			"buffer":0,
			"byteLength":2292,
			"byteOffset":3216388,
			"target":34962
		},
		{
			"buffer":0,
			"byteLength":1528,
			"byteOffset":3218680,
			"target":34962
		},
		{
			"buffer":0,
			"byteLength":1800,
			"byteOffset":3220208,
			"target":34963
		},
		{
			"buffer":0,
			"byteLength":1380,
			"byteOffset":3222008,
			"target":34962
		},
		{
			"buffer":0,
			"byteLength":1380,
			"byteOffset":3223388,
			"target":34962
		},
		{
			"buffer":0,
			"byteLength":920,
			"byteOffset":3224768,
			"target":34962
		},
		{
			"buffer":0,
			"byteLength":1008,
			"byteOffset":3225688,
			"target":34963
		}
	],
	"samplers":[
		{
			"magFilter":9729,
			"minFilter":9987
		}
	],
	"buffers":[
		{
			"byteLength":3226696,
			"uri":"CharcoalDonut.bin"
		}
	]
}
